<?xml version="1.0" encoding="UTF-8"?>
<svg id="OBJECTS" xmlns="http://www.w3.org/2000/svg" viewBox="0 0 83.48 83.48">
  <defs>
    <style>
      .cls-1 {
        fill: #fff;
        stroke-width: 0px;
      }
    </style>
  </defs>
  <g>
    <path class="cls-1" d="M41.74,83.48C18.73,83.48,0,64.76,0,41.74S18.73,0,41.74,0c2.82,0,5.65.28,8.39.84,1.5.31,3.01.7,4.48,1.18.74.24,1.14,1.03.9,1.77-.24.74-1.03,1.14-1.77.9-1.37-.44-2.77-.81-4.17-1.1-2.56-.52-5.19-.79-7.83-.79C20.27,2.81,2.81,20.27,2.81,41.74s17.47,38.93,38.93,38.93,38.94-17.47,38.94-38.93c0-6.39-1.58-12.73-4.57-18.32-.37-.68-.11-1.53.58-1.9.68-.36,1.53-.11,1.9.58,3.21,6,4.9,12.8,4.9,19.65,0,23.02-18.73,41.74-41.74,41.74Z"/>
    <path class="cls-1" d="M70.02,14.38c-.36,0-.71-.13-.98-.4-.99-.98-2.05-1.91-3.15-2.78-.84-.67-1.72-1.31-2.61-1.9-.64-.43-.82-1.3-.39-1.95.43-.64,1.3-.82,1.95-.39.95.63,1.89,1.32,2.8,2.03,1.18.93,2.31,1.93,3.37,2.98.55.54.56,1.43.02,1.98-.27.28-.64.42-1,.42Z"/>
  </g>
  <path class="cls-1" d="M50.32,20.53h-17.15c-6.97,0-12.64,5.67-12.64,12.64v17.15c0,6.97,5.67,12.64,12.64,12.64h17.15c6.97,0,12.64-5.67,12.64-12.64v-17.15c0-6.97-5.67-12.64-12.64-12.64ZM41.74,52.71c-6.05,0-10.97-4.92-10.97-10.97s4.92-10.97,10.97-10.97,10.97,4.92,10.97,10.97-4.92,10.97-10.97,10.97ZM52.74,33.48c-1.45,0-2.63-1.18-2.63-2.63s1.18-2.63,2.63-2.63,2.63,1.18,2.63,2.63-1.18,2.63-2.63,2.63Z"/>
</svg>