<?xml version="1.0" encoding="UTF-8"?>
<svg id="OBJECTS" xmlns="http://www.w3.org/2000/svg" viewBox="0 0 83.48 83.48">
  <defs>
    <style>
      .cls-1 {
        fill-rule: evenodd;
      }

      .cls-1, .cls-2 {
        fill: #fff;
        stroke-width: 0px;
      }
    </style>
  </defs>
  <path class="cls-1" d="M63.47,28.47c-1.6.71-3.3,1.17-5.1,1.39,1.84-1.1,3.25-2.8,3.92-4.86-1.73,1-3.64,1.74-5.66,2.13-1.63-1.71-3.95-2.77-6.51-2.77-4.92,0-8.91,3.92-8.91,8.76,0,.69.07,1.36.22,2-7.41-.37-13.98-3.86-18.38-9.17-.76,1.3-1.21,2.8-1.21,4.42,0,3.04,1.58,5.72,3.97,7.3-1.47-.04-2.84-.45-4.05-1.1v.11c0,1.13.22,2.19.61,3.17,1.1,2.77,3.55,4.85,6.55,5.44-.76.19-1.54.3-2.36.3-.58,0-1.13-.06-1.67-.15,1.13,3.49,4.42,6.01,8.32,6.09-3.04,2.36-6.89,3.77-11.06,3.77-.72,0-1.43-.06-2.13-.13,3.95,2.49,8.65,3.94,13.68,3.94,13.92,0,22.5-9.65,24.74-19.66.41-1.78.61-3.56.61-5.31,0-.37,0-.76-.02-1.13,1.74-1.24,3.25-2.78,4.44-4.55h0Z"/>
  <g>
    <path class="cls-2" d="M41.74,83.48C18.73,83.48,0,64.76,0,41.74S18.73,0,41.74,0c2.82,0,5.65.28,8.39.84,1.5.31,3.01.7,4.48,1.18.74.24,1.14,1.03.9,1.77-.24.74-1.02,1.14-1.77.9-1.37-.44-2.77-.81-4.17-1.1-2.56-.52-5.19-.79-7.83-.79C20.27,2.81,2.81,20.27,2.81,41.74s17.47,38.93,38.94,38.93,38.94-17.47,38.94-38.93c0-6.39-1.58-12.73-4.57-18.32-.37-.68-.11-1.53.58-1.9.68-.36,1.53-.11,1.9.58,3.21,6,4.9,12.8,4.9,19.65,0,23.02-18.73,41.74-41.74,41.74Z"/>
    <path class="cls-2" d="M70.02,14.38c-.36,0-.71-.13-.98-.4-1-.98-2.06-1.91-3.15-2.78-.84-.66-1.72-1.3-2.61-1.9-.64-.43-.82-1.3-.39-1.95.43-.65,1.3-.82,1.95-.39.96.64,1.9,1.32,2.8,2.03,1.17.93,2.31,1.93,3.37,2.98.55.54.56,1.43.02,1.98-.27.28-.64.42-1,.42Z"/>
  </g>
</svg>