<?xml version="1.0" encoding="UTF-8"?>
<svg id="Layer_4" data-name="Layer 4" xmlns="http://www.w3.org/2000/svg" viewBox="0 0 100 100">
  <defs>
    <style>
      .cls-1 {
        stroke-miterlimit: 10;
      }

      .cls-1, .cls-2, .cls-3 {
        stroke: #026735;
        stroke-width: 3px;
      }

      .cls-1, .cls-3 {
        fill: #fff;
      }

      .cls-2 {
        fill: #026836;
      }

      .cls-2, .cls-3 {
        stroke-linecap: round;
        stroke-linejoin: round;
      }
    </style>
  </defs>
  <g>
    <path class="cls-3" d="M50,81.72c5.84,0,10.57-4.73,10.57-10.57h-21.15c0,5.84,4.73,10.57,10.57,10.57Z"/>
    <g>
      <g>
        <rect class="cls-1" x="46.13" y="65.36" width="7.74" height="11.58"/>
        <line class="cls-3" x1="46.13" y1="65.36" x2="46.13" y2="76.93"/>
        <line class="cls-3" x1="53.87" y1="65.36" x2="53.87" y2="76.93"/>
      </g>
      <g>
        <path class="cls-3" d="M66.68,41.71v8.9c2,0,3.62-3.28,3.62-5.28s-1.62-3.62-3.62-3.62Z"/>
        <path class="cls-3" d="M29.88,45.32c0,2,1.62,5.28,3.62,5.28v-8.9c-2,0-3.62,1.62-3.62,3.62Z"/>
        <path class="cls-3" d="M50.09,12.42c-9.16,0-16.59,7.43-16.59,16.59v22.36c0,9.16,7.43,16.59,16.59,16.59s16.59-7.43,16.59-16.59v-22.36c0-9.16-7.43-16.59-16.59-16.59Z"/>
      </g>
    </g>
    <g>
      <path class="cls-3" d="M67.83,71.14h-3.5c0,7.91-6.42,14.33-14.33,14.33s-14.33-6.42-14.33-14.33h-3.5c-8.45,0-15.29,6.63-15.29,14.8v12.31h66.25v-12.31c0-8.17-6.85-14.8-15.29-14.8Z"/>
      <path class="cls-2" d="M50,85.47c7.91,0,14.33-6.42,14.33-14.33h-3.75c0,5.84-4.73,10.57-10.57,10.57s-10.57-4.73-10.57-10.57h-3.76c0,7.91,6.42,14.33,14.33,14.33Z"/>
    </g>
    <path class="cls-3" d="M55.03,94.44c0,.64-.52,1.16-1.16,1.16s-1.16-.52-1.16-1.16.52-1.16,1.16-1.16,1.16.52,1.16,1.16Z"/>
    <path class="cls-3" d="M46.13,94.44c0,.64-.52,1.16-1.16,1.16s-1.16-.52-1.16-1.16.52-1.16,1.16-1.16,1.16.52,1.16,1.16Z"/>
    <g>
      <path class="cls-2" d="M60.12,58.79s-.34,0-.91-.03c-.58-.02-1.39-.06-2.35-.11-.94-.05-2.05-.11-3.23-.18-.58,0-1.18-.05-1.79-.07-.59.01-1.26-.03-1.79-.02-.63.03-1.31.02-1.89.07-.6.06-1.16.04-1.76.11-.59.04-1.16.07-1.7.1-.55.03-1.07.06-1.55.08-.97.04-1.78.06-2.36.05-.58,0-.92-.02-.92-.02,0,0,.28-.19.79-.47.51-.27,1.26-.63,2.18-.99.46-.18.97-.34,1.51-.52.54-.18,1.12-.31,1.73-.45.59-.15,1.27-.23,1.93-.33.68-.11,1.29-.1,1.94-.14.75,0,1.37.05,2.04.1.66.06,1.29.18,1.91.29.61.12,1.19.29,1.74.43.55.17,1.05.35,1.52.52.92.37,1.67.75,2.17,1.04.51.3.78.5.78.5Z"/>
      <g>
        <path class="cls-3" d="M53.07,52.36c0,1.41-1.37,2.56-3.07,2.56s-3.07-1.15-3.07-2.56"/>
        <g>
          <path class="cls-3" d="M59.7,45.46c0,.66-.54,1.19-1.19,1.19s-1.19-.53-1.19-1.19.53-1.19,1.19-1.19,1.19.53,1.19,1.19Z"/>
          <line class="cls-3" x1="56.49" y1="40.98" x2="60.52" y2="40.98"/>
        </g>
        <g>
          <path class="cls-3" d="M42.69,45.46c0,.66-.54,1.19-1.19,1.19s-1.19-.53-1.19-1.19.53-1.19,1.19-1.19,1.19.53,1.19,1.19Z"/>
          <line class="cls-3" x1="39.48" y1="40.98" x2="43.51" y2="40.98"/>
        </g>
      </g>
    </g>
    <path class="cls-3" d="M71.83,17.7c.42-1.23.66-2.54.66-3.92,0-6.65-5.39-12.03-12.03-12.03-4.42,0-8.28,2.39-10.37,5.95-2.09-3.56-5.95-5.95-10.37-5.95-6.65,0-12.03,5.39-12.03,12.03,0,1.31.21,2.56.6,3.74-2.97.96-5.11,3.74-5.11,7.03,0,4.08,3.31,7.39,7.39,7.39,3.7,0,6.76-2.73,7.3-6.28.61.09,1.22.16,1.85.16,4.43,0,8.28-2.4,10.37-5.95,2.09,3.56,5.95,5.95,10.37,5.95.44,0,.88-.03,1.31-.07.57,3.51,3.61,6.2,7.29,6.2,4.08,0,7.39-3.31,7.39-7.39,0-3.1-1.91-5.75-4.62-6.85Z"/>
    <polygon class="cls-2" points="33.5 41.71 31.13 42.75 31.13 31.65 33.5 31.65 33.5 41.71"/>
    <polygon class="cls-2" points="69.22 42.75 66.68 41.71 66.68 31.65 69.05 31.65 69.22 42.75"/>
    <path class="cls-2" d="M69.06,27.29H31.13v-5.08s9.08-3.54,18.95-3.54c7.93,0,18.98,3.37,18.98,3.37v5.26Z"/>
    <path class="cls-3" d="M69.06,31.65s-11.74-2.49-18.8-2.49c-9.18,0-19.13,2.49-19.13,2.49v-4.61s9.16-2.49,18.81-2.49,19.12,2.49,19.12,2.49v4.61Z"/>
    <line class="cls-3" x1="46.13" y1="60.46" x2="53.87" y2="60.46"/>
    <path class="cls-2" d="M42.69,29.62s5.46,6.15,13.8,4.02l-2.16-4.28s-6.95-.82-11.64.26Z"/>
  </g>
  <g>
    <path class="cls-2" d="M57.51,89.23s-4.56-1.14-5.96-2.54c-1.4-1.4-2.22-2.85-.82-4.25,1.4-1.4,2.85-.58,4.25.81,1.4,1.4,2.53,5.97,2.53,5.97Z"/>
    <path class="cls-2" d="M42.49,89.22s1.14-4.56,2.54-5.96c1.4-1.4,2.85-2.22,4.25-.82,1.4,1.4.58,2.85-.82,4.25-1.4,1.4-5.97,2.53-5.97,2.53Z"/>
  </g>
</svg>